<svg xmlns="http://www.w3.org/2000/svg" viewBox="0 0 172 60"><defs><style>.cls-1{fill:#f22020;}.cls-2{fill:#fff;}</style></defs><title>Ресурс 6</title><g id="Слой_2" data-name="Слой 2"><g id="Слой_1-2" data-name="Слой 1"><path class="cls-1" d="M86.55,56.85q0,3.1-3.16,3.11H72.89c-2.1,0-3.14-1-3.14-3.11V48.74H75v6.93h6.38V49L70.88,39.35a3.55,3.55,0,0,1-1.13-2.72V29.06c0-2.08,1-3.13,3.14-3.13h10.5q3.17,0,3.16,3.09v7.61H81.34V30.21H75v6.16L85.41,46a3.55,3.55,0,0,1,1.14,2.76Z"/><path class="cls-1" d="M117.81,25.93,112.71,60H107.6l-3.12-19.28c0-.7-.09-1.74-.18-3.11,0,.69-.06,1.73-.18,3.11L101,60H95.9L90.8,25.93h5.28l2.7,20.18c0,.69.1,1.73.17,3.11,0-.7.09-1.74.2-3.11l3-20.18h4.28l3,20.18c0,.69.11,1.73.2,3.11,0-.7.08-1.74.18-3.11l2.7-20.18Z"/><path class="cls-1" d="M127.4,60h-5.21v-34h5.21Z"/><path class="cls-1" d="M149.77,56.85q0,3.1-3.17,3.11H136.11Q133,60,133,56.85V48.74h5.22v6.93h6.37V49L134.1,39.35A3.56,3.56,0,0,1,133,36.63V29.06c0-2.08,1-3.13,3.15-3.13H146.6q3.17,0,3.17,3.09v7.61h-5.22V30.21h-6.37v6.16L148.63,46a3.55,3.55,0,0,1,1.14,2.76Z"/><path class="cls-1" d="M172,56.85c0,2.07-1.06,3.11-3.16,3.11h-10.5q-3.15,0-3.15-3.11V48.74h5.22v6.93h6.37V49l-10.45-9.65a3.56,3.56,0,0,1-1.14-2.72V29.06c0-2.08,1.05-3.13,3.15-3.13h10.5c2.1,0,3.16,1,3.16,3.09v7.61h-5.22V30.21h-6.37v6.16L170.86,46A3.55,3.55,0,0,1,172,48.74Z"/><polygon class="cls-1" points="3.28 59.99 11.39 27.83 50.56 27.83 58.03 59.99 3.28 59.99"/><path class="cls-1" d="M50.05,25.46a39.52,39.52,0,0,0,7.82-10.77c2.34-5,3.21-11.84,3.44-14A.61.61,0,0,0,60.73,0h-13a1.47,1.47,0,0,0-1.41,1.64L47.22,12H36.45L37.4,1.64A1.47,1.47,0,0,0,36,0H24.43a.61.61,0,0,0-.58.68l1,11.3H14.12l1-11.3A.61.61,0,0,0,14.57,0H.59A.61.61,0,0,0,0,.67a48.1,48.1,0,0,0,3.46,14c3.19,7.47,7.82,10.77,7.82,10.77Z"/><polygon class="cls-2" points="40.43 41.55 40.43 46.81 33.65 46.81 33.65 53.57 28.11 53.57 28.11 46.81 21.17 46.81 21.17 41.55 28.11 41.55 28.11 34.63 33.65 34.63 33.65 41.55 40.43 41.55"/><path class="cls-1" d="M83.36,10.53c-.62,3.35-3.36,5.12-6.73,5.12-4.81,0-7.12-3.31-7.12-7.72S71.77,0,76.69,0c3.44,0,6,1.82,6.47,5.19l-2.1.19a4.17,4.17,0,0,0-4.32-3.56c-3.66,0-5,3-5,6.13s1.48,6,5,6a4.65,4.65,0,0,0,4.61-3.61Z"/><path class="cls-1" d="M94.52,15.45c-1.08,0-1.79-.21-1.88-1.4A4.74,4.74,0,0,1,89,15.67c-2.24,0-3.88-1.15-3.88-3.46,0-2.53,2-2.94,4.15-3.33l2.08-.39c.64-.13,1.29-.15,1.29-1C92.6,6,91.36,5.62,90,5.62s-2.49.58-2.49,2.12H85.48a3.65,3.65,0,0,1,.18-1.08C86.28,4.56,88.25,4,90.25,4c1.48,0,3.12.33,3.85,1.73A5.05,5.05,0,0,1,94.46,8v4.58c0,1,0,1.36,1.15,1.39v1.44Zm-2-5.79a20.79,20.79,0,0,1-2.9.71c-1.19.24-2.48.52-2.48,1.91,0,1.23,1.11,1.79,2.24,1.79a3.56,3.56,0,0,0,1.7-.45,3.21,3.21,0,0,0,1.44-3.14Z"/><path class="cls-1" d="M99.84,4.26V5.58a4.48,4.48,0,0,1,3.44-1.52c3.45,0,4.94,2.84,4.94,5.88,0,2.81-1.33,5.8-4.65,5.8a4.92,4.92,0,0,1-3.73-1.6v5.42h-2V4.26ZM103,5.73c-2.37,0-3.21,2-3.21,4.06s.78,4.3,3.17,4.3,3.15-2.22,3.15-4.26S105.49,5.73,103,5.73Z"/><path class="cls-1" d="M112.76,2.42h-2V.19h2Zm0,13h-2V4.26h2Z"/><path class="cls-1" d="M121.06,4.26V5.9H119v6.23c0,.93,0,1.75,1.31,1.75a3.27,3.27,0,0,0,.93-.09v1.6a7.35,7.35,0,0,1-1.42.15c-2,0-2.83-.8-2.83-2.7V5.9h-1.91V4.26H117V.91h2V4.26Z"/><path class="cls-1" d="M132.65,15.45c-1.09,0-1.8-.21-1.89-1.4a4.74,4.74,0,0,1-3.68,1.62c-2.23,0-3.87-1.15-3.87-3.46,0-2.53,2-2.94,4.14-3.33l2.08-.39c.64-.13,1.29-.15,1.29-1,0-1.53-1.24-1.88-2.57-1.88s-2.48.58-2.48,2.12H123.6a3.65,3.65,0,0,1,.18-1.08c.62-2.1,2.59-2.62,4.59-2.62,1.48,0,3.12.33,3.85,1.73A5.05,5.05,0,0,1,132.58,8v4.58c0,1,0,1.36,1.15,1.39v1.44Zm-2-5.79a21.27,21.27,0,0,1-2.91.71c-1.19.24-2.48.52-2.48,1.91,0,1.23,1.11,1.79,2.24,1.79a3.56,3.56,0,0,0,1.7-.45,3.22,3.22,0,0,0,1.45-3.14Z"/><path class="cls-1" d="M138,15.45h-2V.19h2Z"/><path class="cls-1" d="M152.12.19a11.83,11.83,0,0,1,2.59.22c3.63.8,4.92,3.89,4.92,7.24,0,3-.93,6-4,7.22a12.4,12.4,0,0,1-4.45.58H147V.19ZM149,13.64h2.17a10.56,10.56,0,0,0,3.32-.37c2.39-.91,3-3.44,3-5.68,0-3.76-1.91-5.6-5.21-5.6H149Z"/><path class="cls-1" d="M163.65,10.55a3.25,3.25,0,0,0,3.28,3.5,2.66,2.66,0,0,0,2.9-2.23l2.08.15c-.42,2.53-2.48,3.7-5.12,3.7-3.92,0-5.25-3-5.25-5.77,0-3.2,1.88-5.86,5.36-5.86S172,6.57,172,9.77c0,.19,0,.41,0,.6h-8.33Zm6.22-1.77a2.88,2.88,0,0,0-2.9-3c-2,0-3,1.23-3.32,3Z"/></g></g></svg>