<svg xmlns="http://www.w3.org/2000/svg" viewBox="0 0 172 60"><defs><style>.cls-1{fill:#f22020;}.cls-2{fill:#fff;}</style></defs><title>Ресурс 6</title><g id="Слой_2" data-name="Слой 2"><g id="Слой_1-2" data-name="Слой 1"><polygon class="cls-1" points="3.28 59.99 11.39 27.83 50.56 27.83 58.03 59.99 3.28 59.99"/><path class="cls-1" d="M50.05,25.46a39.52,39.52,0,0,0,7.82-10.77c2.34-5,3.21-11.84,3.44-14A.61.61,0,0,0,60.73,0h-13a1.47,1.47,0,0,0-1.41,1.64L47.22,12H36.45L37.4,1.64A1.47,1.47,0,0,0,36,0H24.43a.61.61,0,0,0-.58.68l1,11.3H14.12l1-11.3A.61.61,0,0,0,14.57,0H.59A.61.61,0,0,0,0,.67a48.1,48.1,0,0,0,3.46,14c3.19,7.47,7.82,10.77,7.82,10.77Z"/><polygon class="cls-2" points="40.43 41.55 40.43 46.81 33.65 46.81 33.65 53.57 28.11 53.57 28.11 46.81 21.17 46.81 21.17 41.55 28.11 41.55 28.11 34.63 33.65 34.63 33.65 41.55 40.43 41.55"/></g></g></svg>